<?xml version="1.0" encoding="UTF-8" standalone="no"?>
<svg xmlns="http://www.w3.org/2000/svg" xmlns:xlink="http://www.w3.org/1999/xlink" width="10.722mm" height="10.251mm" viewBox="356.533630 -235.424103 10.722198 10.250580">
    <path transform="matrix(1,0,0,-1,0,0)" style="stroke:none;fill:#d0d000;fill-rule:evenodd" d="M360.439819,234.004745L360.439423,234.005142C360.289246,234.023712,360.048187,234.018188,359.78186,233.869598C359.501678,233.71312,359.210449,233.407639,359.18988,233.115219C359.169739,232.831085,359.408386,232.642593,359.503662,232.573822C359.530518,232.554459,359.556976,232.536682,359.582672,232.520096C359.81424,232.369125,360.106689,232.227646,360.418884,232.188538C360.466675,232.182617,360.514893,232.179047,360.563507,232.178253C360.639771,232.177063,360.682434,232.19722,360.729462,232.222122C361.061798,232.397583,361.215546,233.099411,361.019928,233.55069C360.970123,233.665298,360.870941,233.883438,360.589569,233.972733C360.568268,233.979462,360.515686,233.99527,360.439819,234.004745z"/>
    <path transform="matrix(1,0,0,-1,0,0)" style="stroke:none;fill:#ff8000;fill-rule:evenodd" d="M359.363739,232.056534L359.363342,232.057327C359.070923,232.093689,358.567871,232.126495,357.969971,231.835236C357.824158,231.76413,357.046051,231.368942,356.699097,230.585693C356.456451,230.037979,356.439056,229.332993,356.883636,229.025558C357.016022,228.934265,357.176453,228.886063,357.344025,228.865112C357.723785,228.817703,358.137909,228.910568,358.33432,228.959167C358.413757,228.978928,358.490417,228.999863,358.564301,229.020416C359.326599,229.235794,360.214966,229.578796,360.877655,230.094498C361.015991,230.201996,361.059052,230.281815,361.101746,230.372314C361.406006,231.012497,360.525543,231.898483,359.433289,232.04744C359.411591,232.050217,359.388245,232.05336,359.363739,232.056534z"/>
    <path transform="matrix(1,0,0,-1,0,0)" style="stroke:none;fill:#b4b4b4;fill-rule:evenodd" d="M363.656555,235.409988L363.656158,235.410782C363.114777,235.478348,362.354065,235.292221,361.89447,234.785217C361.438843,234.282944,361.41037,233.616684,361.40921,233.362991C361.408417,233.291855,361.41037,233.223495,361.412354,233.157898C361.436859,232.481354,361.568054,231.719467,361.956512,231.224686C362.03714,231.121552,362.114197,231.102585,362.203125,231.086792C362.211395,231.085205,362.220093,231.084015,362.228394,231.082825C362.864624,231.003387,364.077026,232.091705,364.546875,233.175674C364.668182,233.455063,364.893066,233.992493,364.723907,234.530731C364.686005,234.651642,364.465454,235.292221,363.689362,235.40564C363.678284,235.407227,363.667603,235.408798,363.656555,235.409988z"/>
    <path transform="matrix(1,0,0,-1,0,0)" style="stroke:none;fill:#7d87b9;fill-rule:evenodd" d="M366.002319,233.721405L366.001923,233.721802C365.940674,233.729309,365.875488,233.727737,365.807495,233.714294C365.496094,233.653046,365.217896,233.368515,365.11438,233.25708C365.085114,233.225464,365.057465,233.195038,365.031372,233.165405C364.761475,232.857956,364.482086,232.475037,364.371826,232.119385C364.348511,232.04509,364.358795,232.009521,364.373413,231.971191C364.408569,231.877121,364.520416,231.821808,364.67453,231.802429C364.966187,231.766083,365.409576,231.859344,365.775482,232.0672C365.917755,232.147827,366.18924,232.305878,366.369019,232.603455C366.409363,232.670242,366.618408,233.03064,366.482452,233.355087C366.406982,233.533691,366.230743,233.692947,366.002319,233.721405z"/>
    <path transform="matrix(1,0,0,-1,0,0)" style="stroke:none;fill:#bb7784;fill-rule:evenodd" d="M363.371185,228.408707C363.322998,228.414627,363.274384,228.418182,363.225769,228.418976C363.149536,228.420166,363.107208,228.400391,363.060211,228.375504C362.727875,228.199661,362.57373,227.497818,362.769348,227.046524C362.819153,226.931931,362.918732,226.713776,363.199707,226.624481C363.221039,226.617767,363.27359,226.601974,363.349884,226.592468C363.500031,226.573898,363.741089,226.579422,364.00705,226.728012C364.287201,226.884521,364.578461,227.189972,364.599426,227.482391C364.619568,227.766541,364.380859,227.955017,364.285645,228.023392C364.259155,228.042755,364.232666,228.060532,364.207001,228.07753C363.975433,228.2285,363.683411,228.369965,363.371185,228.408707z"/>
    <path transform="matrix(1,0,0,-1,0,0)" style="stroke:none;fill:#4a6fe3;fill-rule:evenodd" d="M366.445251,231.732101C366.065887,231.779526,365.651337,231.686646,365.455353,231.63765C365.376312,231.618286,365.298859,231.596954,365.225372,231.576401C364.46228,231.360626,363.574707,231.017624,362.911621,230.501923C362.773712,230.394424,362.731049,230.315002,362.687561,230.224121C362.383667,229.583923,363.26413,228.697952,364.356384,228.549377C364.378876,228.546204,364.403381,228.54306,364.429474,228.539886C364.721924,228.503525,365.223389,228.472305,365.819702,228.762772C365.965515,228.833893,366.743225,229.228668,367.090179,230.011917C367.332825,230.559601,367.350616,231.264618,366.906036,231.571671C366.773651,231.662949,366.612823,231.711151,366.445251,231.732101z"/>
    <path transform="matrix(1,0,0,-1,0,0)" style="stroke:none;fill:#d33f6a;fill-rule:evenodd" d="M361.561707,229.514404L361.561707,229.514008C360.925476,229.59343,359.712708,228.505112,359.242432,227.420746C359.121521,227.141769,358.896667,226.604324,359.065399,226.065704C359.103333,225.944794,359.324249,225.304611,360.100769,225.191193C360.111816,225.189606,360.122498,225.188034,360.133545,225.186844C360.674927,225.119278,361.435638,225.305008,361.895233,225.811996C362.350464,226.314255,362.378937,226.98053,362.380524,227.234238C362.380524,227.305359,362.37973,227.37413,362.376953,227.439316C362.352844,228.116257,362.221649,228.877762,361.833588,229.372528C361.752594,229.475662,361.675507,229.494232,361.587006,229.510422C361.578705,229.512009,361.570404,229.513214,361.561707,229.514404z"/>
    <path transform="matrix(1,0,0,-1,0,0)" style="stroke:none;fill:#ffdb66;fill-rule:evenodd" d="M359.115204,228.795181L359.115204,228.794785C358.823975,228.831131,358.380188,228.737869,358.014252,228.530411C357.871979,228.449799,357.600098,228.291336,357.420715,227.994156C357.380402,227.927368,357.171356,227.566589,357.307281,227.242523C357.382355,227.063934,357.559021,226.904648,357.787415,226.876205C357.848663,226.868698,357.913879,226.870285,357.981842,226.883728C358.29364,226.94458,358.571838,227.229111,358.675385,227.340927C358.704224,227.372147,358.731873,227.402969,358.757965,227.432632C359.028259,227.740448,359.307648,228.123383,359.417908,228.478638C359.440826,228.552536,359.430145,228.58812,359.415955,228.626434C359.380737,228.72049,359.269348,228.775818,359.115204,228.795181z"/>
</svg>
